<?xml version="1.0" encoding="utf-8"?>
<svg xmlns="http://www.w3.org/2000/svg" viewBox="32 -234 270 288">
  <title>🐍</title>
  <desc>
    This was the glyph from the Segoe UI Emoji font depicting code point U+1F40D
    (“SNAKE”), prior to the “Fluent” redesign that more or less eradicated the
    original work from the world over night. Then original metro era font was
    the first emoji typeface ever made that demonstrated responsible, competent
    craftsmanship. Its designers recognized that emoji are fundamentally textual
    in nature. They brought a clear grasp of typographic principles to bear on
    the project, prioritizing legibility and distinguishability at any sizes and
    set on any background. The glyphs actually felt like glyphs. They found many
    inventive, clever, and surprising solutions to (typically entirely ignored)
    problems that emoji had presented for many readers up to that time. Scripts
    in many typefaces could be set alongside it without even inducing the queasy
    dissonance characteristic of emoji embedded in “normal” text in other faces.
    There was a possibility of typographic harmony in their presence. Many of
    their solutions were strangely subtle — coy, even — and this was one of the
    most charming aspects of the type. It wasn’t just mindfully crafted, though;
    it had genuine artistic merit, evidently the work of real type designers who
    had a fantastic and playful grasp of metalanguages of shape and gesture and
    caricature and instananeous distinction in the eye. It wasn’t perfect — just
    the first of its kind, an actual invention. To date, it was also the last of
    its kind. It’s been gone for years, now, and Microsoft has ignored those who
    requested at least having the option of using it again because of low visual
    acuity. But for this single face, the state of emoji design has been abysmal
    across the board without fail and standards are far too low. Metro era Segoe
    UI Emoji demonstrate that there need not be anything staid or coldly medical
    about works that take accessibility seriously enough to wonder if the status
    quo is actually acceptable. Indeed, it is a natural partner to craftsmanship
    — perhaps even its very essence. Let it be known: no other font’s even come
    close to what had been achieved there seemingly with no recognition. Nothing
    remotely comparable to its quality preceded it nor has followed it, to date.
    That’s precisely what renders such achievements invisible, though; a message
    from the future is not often acknowledged or answered immediately even where
    a bar-raising challenge to prevailing standards and a way of thinking oughta
    be clear cause rather few are calibrated to see what’s unprecedent as it is.
    Anyway I was always particularly partial to this glyph and thought it oughta
    live again.
  </desc>
  <path d="M32 53.9v-18A53 53 0 0 1 51.8-5.7Q58-11 65.5-14 58-21 54-30.1q-4-9-4-19.4a47 47 0 0 1 15.2-35.4q7-6.5 16-11 9.1-4.3 19.2-7 9.9-2.7 20.1-3.8 10.2-1.2 19.3-1.2h22.4l22.6.2v-13.7a74 74 0 0 0-1-11.3q-.7-5.7-3-11h-50q-11.6 0-21.8-4.5-10-4.5-17.6-13.6H63.5a22 22 0 0 1-16-6.5 22 22 0 0 1-6.5-16q0-5.6 2.5-10.4 2.5-4.7 7.1-8L50-211a22 22 0 0 1 6.6-16 23 23 0 0 1 15.8-6.5h87.9q9 0 18.5 2.3a100 100 0 0 1 44.5 24q11.4 11 18.7 24.6 7.4 13.8 11 29.3t3.6 32v27q9.9 4.5 18.1 10.6a64 64 0 0 1 26.8 52.3 76 76 0 0 1-9.2 36q-6 10.5-14.6 18.2T258.8 36t-22 9a233 233 0 0 1-47.4 8.3q-12 .7-22.6.7Z"/>
  <path fill="#F7630C" d="M76-188.7a37 37 0 0 1-8.1-22.4q0-1.7 1.3-3.2 1.5-1.3 3.2-1.3t3.2 1.3q1.2 1.4 1.3 3.2A26 26 0 0 0 89-188.8h24.9v9H63.5q-1.8 0-3.2-1.3-1.3-1.2-1.3-3.2 0-1.8 1.3-3.1t3.2-1.3Z"/>
  <path fill="#BAD80A" d="m238.6-80 2.3 2.7q1.2 1.2 3.2 1.2 2.6 0 3.5-2.5a77 77 0 0 1 23.8 16q5.1 5.3 8.3 11.7t3.2 13.8v4l-.6 3.9q-2 8.3-5.1 16.6a55 55 0 0 1-21.5 26.4q-7.5 4.5-16.2 7.8a122 122 0 0 1-18.3 5q-9.6 2-19.1 2.8a295 295 0 0 1-35.3 1.6 560 560 0 0 1-33-.7h-66a7 7 0 0 0-2.8-3q-3-1.6-6-3.9a13 13 0 0 1-4.2-5.5 35 35 0 0 1 13.1-13A37 37 0 0 1 86 0h80.9a344 344 0 0 0 30-1.7q9-1 18-3.2 9-2.1 16.4-5.6a37 37 0 0 0 11.9-8.6 18 18 0 0 0 4.5-12.4q0-2.5-1.3-4.7A17 17 0 0 0 243-40a7 7 0 0 0-3.2-5.5l-3-1.5-3.2-1.1-1-.4a97 97 0 0 1-29.2 24.3q-8.4 4.5-17.7 6.9a74 74 0 0 1-19 2.4h-27a108 108 0 0 1-33.1-5.3Q98.5-22.8 91-27a74 74 0 0 1-19-15.8q-.9-1-1-2.1a83 83 0 0 1-1.7-13.5q0-.6.5-1.9a33 33 0 0 1 3-5.3l1.2-1.8q5.2-6.9 13-11.2a80 80 0 0 1 17-6.8q9.2-2.5 18.5-3.4 9.3-1 17.2-1h45a324 324 0 0 1 18 .5l3-21.3q.4-3.2 1-5.3.4-2.1.4-5.4a87 87 0 0 0-3.2-22.4 42 42 0 0 0-4.9-10.5q-3-4.8-7.7-7.4h-60.5q-9.7 0-16.5-4a33 33 0 0 1-11-10.1 45 45 0 0 1-6.5-14.4 66 66 0 0 1-2-16.4v-9h64.8l.8.1q19.2 1.4 33.8 9.4a78 78 0 0 1 24.4 20.7 90 90 0 0 1 15 29.3q5 16.5 5 34.7Zm-71.8 35a53 53 0 0 0 14-2 36 36 0 0 0 12.7-6.2 15 15 0 0 0-3.4-3.5 24 24 0 0 0-9.4-4q-2.6-.4-5-.4h-36a44 44 0 0 0-30.2 11.6q7 2.7 15 3.6 7.8.9 15.3.9Z"/>
  <path fill="#73AA24" d="M282.9-39.9a37 37 0 0 1 .6 8.4 53 53 0 0 1-20.6 43.4A80 80 0 0 1 241.6 24q-12 4.6-25.1 7.3-13 2.7-25.9 3.5-12.9 1-23.8 1H50q0-4.8 1.2-9.3t3.7-8.6h111.9q10 0 22-.7 12-.8 24.3-3A162 162 0 0 0 236.9 8a89 89 0 0 0 21.2-10.4 63 63 0 0 0 16-15.7 52 52 0 0 0 8.8-21.9m-44.3-42 9 3.4V-68l-.1 7.3A62 62 0 0 1 243-40a24 24 0 0 0-5-3.4l-5.4-2.5A66 66 0 0 1 205.1-18q-8.4 4.6-18.2 6.9A89 89 0 0 1 166.7-9h-27a160 160 0 0 1-29.6-3q-8-1.7-15.6-4.7A54 54 0 0 1 81-24q-5.9-4.5-9.5-10.8-3.6-6.2-3.6-14.6 0-4.5 1.3-9 2 6.4 6.5 11.4 4.5 4.8 10.4 8.4Q92-35.2 99-33a120 120 0 0 0 28.3 5.5q6.8.5 12.5.5h27a85 85 0 0 0 26.6-4.2 72 72 0 0 0 23-12.4q10-8.1 16.2-19.8 6-11.6 6-26.5Zm-62.8 10.1a288 288 0 0 1 26.8 1.4q-.1 5.3-2.7 9.6a27 27 0 0 1-6.4 7.5 303 303 0 0 0-17.7-.5h-36q-7.5 0-15.4 1-7.8.9-14.9 3.4v-2.9q0-5 3.2-8.6 3.1-3.6 7.9-6a41 41 0 0 1 19.2-4.9Zm24.6-89.8q6.1 8.7 8.7 19.2t2.5 21.1v32.7h-.6a76 76 0 0 0-8.2-.7v-32q0-10.5-2.6-21.1-2.4-10.5-8.8-19.2Z"/>
  <path d="M148.8-206.6q3.7 0 6.3 2.6a9 9 0 0 1 2.7 6.4v8.8q0 3.9-2.7 6.4a9 9 0 0 1-6.3 2.7q-3.7 0-6.4-2.7a9 9 0 0 1-2.7-6.3v-9q0-3.5 2.7-6.2a9 9 0 0 1 6.3-2.7"/>
</svg>
